<svg fill="none" height="50" viewBox="0 0 50 50" width="50" xmlns="http://www.w3.org/2000/svg"><g stroke="#22d59c" stroke-linecap="round" stroke-linejoin="round" stroke-width="3.5"><path d="m43.1641 6.64062h-35.15629c-.97081 0-1.75781.787-1.75781 1.75782v35.15626c0 .9708.787 1.7578 1.75781 1.7578h35.15629c.9708 0 1.7578-.787 1.7578-1.7578v-35.15626c0-.97082-.787-1.75782-1.7578-1.75782z"/><path d="m36.1328 3.125v7.0312"/><path d="m15.0391 3.125v7.0312"/><path d="m6.25 17.1875h38.6719"/><path d="m17.6758 25.9761h6.1523l-3.5156 4.3945c.5781 0 1.1472.1425 1.657.415s.9446.6664 1.2658 1.147c.3213.4806.519 1.033.5758 1.6082.0568.5753-.0291 1.1557-.2502 1.6898-.221.5341-.5704 1.0055-1.0171 1.3724s-.977.618-1.5439.731-1.1529.0845-1.7061-.083c-.5533-.1675-1.0567-.4688-1.4657-.8773"/><path d="m29.1016 28.6128 3.5156-2.6367v11.4258"/></g></svg>