<svg fill="none" height="60" viewBox="0 0 101 60" width="101" xmlns="http://www.w3.org/2000/svg" xmlns:xlink="http://www.w3.org/1999/xlink"><clipPath id="a"><path d="m.25 0h100v60h-100z"/></clipPath><g clip-path="url(#a)"><path d="m97.5725 41.9653h-94.34781c-1.20061 0-2.17391.9876-2.17391 2.2059v12.7941c0 1.2183.9733 2.2059 2.17391 2.2059h94.34781c1.2006 0 2.1739-.9876 2.1739-2.2059v-12.7941c0-1.2183-.9733-2.2059-2.1739-2.2059z" fill="#ebeced" stroke="#000" stroke-width="2"/><g fill="#bfbfbf"><path d="m41.5528 52.9411c1.2006 0 2.1739-.9876 2.1739-2.2059s-.9733-2.2059-2.1739-2.2059-2.1739.9876-2.1739 2.2059.9733 2.2059 2.1739 2.2059z"/><path d="m50.2481 52.9411c1.2007 0 2.1739-.9876 2.1739-2.2059s-.9732-2.2059-2.1739-2.2059c-1.2006 0-2.1739.9876-2.1739 2.2059s.9733 2.2059 2.1739 2.2059z"/><path d="m58.9474 52.9411c1.2006 0 2.1739-.9876 2.1739-2.2059s-.9733-2.2059-2.1739-2.2059c-1.2007 0-2.174.9876-2.174 2.2059s.9733 2.2059 2.174 2.2059z"/></g><path d="m97.5725 21.23h-94.34781c-1.20061 0-2.17391.9876-2.17391 2.2059v12.7941c0 1.2183.9733 2.2059 2.17391 2.2059h94.34781c1.2006 0 2.1739-.9876 2.1739-2.2059v-12.7941c0-1.2183-.9733-2.2059-2.1739-2.2059z" fill="#3ace01" stroke="#000" stroke-width="2"/><path d="m27.2228 28.6422c-.3652-.3706-.8055-.5559-1.3209-.5559-.5153 0-.9556.1853-1.3208.5559-.3653.3706-.5479.8174-.5479 1.3403s.1826.9697.5479 1.3403c.3652.3706.8055.5559 1.3208.5559.5154 0 .9557-.1853 1.3209-.5559s.5478-.8174.5478-1.3403-.1826-.9697-.5478-1.3403zm-.2496 3.9159c-.3408.1482-.6979.2224-1.0713.2224-.3733 0-.7304-.0742-1.0713-.2224s-.6351-.3459-.8826-.5929c-.2435-.2512-.4383-.5497-.5843-.8956-.1461-.3459-.2192-.7083-.2192-1.0871s.0731-.7412.2192-1.087c.146-.3459.3408-.6424.5843-.8895.2475-.2511.5417-.4508.8826-.5991.3409-.1482.698-.2223 1.0713-.2223.3734 0 .7305.0741 1.0713.2223.3409.1483.6331.348.8765.5991.2476.2471.4444.5436.5905.8895.1461.3458.2191.7082.2191 1.087s-.073.7412-.2191 1.0871-.3429.6444-.5905.8956c-.2434.247-.5356.4447-.8765.5929zm6.3365-3.9159c-.3652-.3706-.8055-.5559-1.3208-.5559-.5154 0-.9557.1853-1.3209.5559s-.5478.8174-.5478 1.3403.1826.9697.5478 1.3403.8055.5559 1.3209.5559c.5153 0 .9556-.1853 1.3208-.5559.3653-.3706.5479-.8174.5479-1.3403s-.1826-.9697-.5479-1.3403zm-.2495 3.9159c-.3409.1482-.698.2224-1.0713.2224-.3734 0-.7305-.0742-1.0713-.2224-.3409-.1482-.6351-.3459-.8826-.5929-.2435-.2512-.4383-.5497-.5844-.8956s-.2191-.7083-.2191-1.0871.073-.7412.2191-1.087c.1461-.3459.3409-.6424.5844-.8895.2475-.2511.5417-.4508.8826-.5991.3408-.1482.6979-.2223 1.0713-.2223.3733 0 .7304.0741 1.0713.2223.3409.1483.633.348.8765.5991.2475.2471.4444.5436.5904.8895.1461.3458.2192.7082.2192 1.087s-.0731.7412-.2192 1.0871c-.146.3459-.3429.6444-.5904.8956-.2435.247-.5356.4447-.8765.5929zm6.3365-3.9159c-.3652-.3706-.8055-.5559-1.3209-.5559-.5153 0-.9556.1853-1.3208.5559-.3653.3706-.5479.8174-.5479 1.3403s.1826.9697.5479 1.3403c.3652.3706.8055.5559 1.3208.5559.5154 0 .9557-.1853 1.3209-.5559s.5478-.8174.5478-1.3403-.1826-.9697-.5478-1.3403zm-.2496 3.9159c-.3408.1482-.6979.2224-1.0713.2224-.3733 0-.7304-.0742-1.0713-.2224-.3408-.1482-.6351-.3459-.8826-.5929-.2435-.2512-.4382-.5497-.5843-.8956s-.2192-.7083-.2192-1.0871.0731-.7412.2192-1.087c.1461-.3459.3408-.6424.5843-.8895.2475-.2511.5418-.4508.8826-.5991.3409-.1482.698-.2223 1.0713-.2223.3734 0 .7305.0741 1.0713.2223.3409.1483.6331.348.8766.5991.2475.2471.4443.5436.5904.8895.1461.3458.2191.7082.2191 1.087s-.073.7412-.2191 1.0871-.3429.6444-.5904.8956c-.2435.247-.5357.4447-.8766.5929zm6.1844-3.1871c.0891-.0453.1804-.0535.2739-.0247s.1622.0886.207.1792c.0204.0411.0508.1029.0913.1852.0447.0783.0769.138.0974.1792.0447.0864.0508.177.0182.2717-.0282.0947-.0874.1627-.1765.2039-.0891.0411-.1787.0473-.2678.0185-.0892-.033-.1561-.0927-.2009-.1791-.1057-.2018-.1683-.3212-.1887-.3583-.0448-.0864-.0526-.175-.0243-.2656.0282-.0947.0852-.1647.1704-.21zm.9617-.2161c.0892-.0453.1805-.0515.2739-.0186.0974.0288.1705.0886.2192.1792.0891.1646.1561.2902.2008.3767.0448.0865.0509.1771.0183.2718-.0283.0906-.0874.1585-.1765.2038-.0892.0453-.1826.0535-.28.0247-.0935-.0329-.1622-.0947-.207-.1853-.0404-.0824-.1056-.2059-.1948-.3706-.0447-.0864-.0547-.177-.0304-.2717.0283-.0989.0874-.1689.1765-.21zm-4.3339-.488c-.1217 0-.2252-.0432-.3104-.1297s-.1278-.1915-.1278-.315.0426-.2285.1278-.315c.0852-.0906.1887-.1359.3104-.1359 1.4487-.0082 2.8365-.0411 4.1635-.0988.1217-.0082.2274.0309.3165.1174.0891.0823.1361.1853.14.3088s-.0343.2326-.1156.3273c-.0813.0948-.1826.1503-.3044.1668-.7913.1029-1.3856.3129-1.7835.63-.3978.3171-.5965.7062-.5965 1.1674 0 .4035.1257.7226.3774.9573.2557.2306.5926.3459 1.0104.3459.0853 0 .1805-.0062.2861-.0185.1218-.0124.2313.0206.3287.0988.1013.0741.1605.1729.1765.2965.0161.1276-.0143.2429-.0913.3458-.0769.103-.1765.1606-.2982.173-.1948.0164-.3448.0247-.4505.0247-.7304 0-1.3126-.1915-1.7469-.5744-.4342-.383-.6513-.8997-.6513-1.5503 0-.3583.0974-.698.2922-1.0191.1947-.3253.4687-.6012.8217-.8277.0039 0 .0061-.0041.0061-.0123 0-.0041-.0022-.0062-.0061-.0062-.5681.0206-1.193.035-1.8748.0432zm6.3183 3.5515c-.1218 0-.2274-.0432-.3165-.1297-.0853-.0906-.1279-.1977-.1279-.3212s.0426-.2285.1279-.315c.0891-.0865.1947-.1297.3165-.1297h1.3878c.0448 0 .067-.0247.067-.0741v-2.5324c0-.0494-.0222-.0741-.067-.0741h-1.2052c-.1218 0-.2274-.0432-.3165-.1297-.0853-.0865-.1279-.1915-.1279-.315s.0426-.2285.1279-.315c.0891-.0906.1947-.1359.3165-.1359h3.5791c.1218 0 .2252.0453.3104.1359.0892.0865.134.1915.134.315s-.0448.2285-.134.315c-.0852.0865-.1886.1297-.3104.1297h-1.2052c-.0448 0-.067.0247-.067.0741v2.5324c0 .0494.0222.0741.067.0741h1.3878c.1218 0 .2252.0432.3105.1297.0891.0865.1339.1915.1339.315s-.0448.2306-.1339.3212c-.0853.0865-.1887.1297-.3105.1297zm6.1904-3.5947c-.1217-.0577-.2048-.1524-.2496-.2841-.0447-.1359-.0343-.2635.0305-.383.0648-.1276.1643-.212.2982-.2532.134-.0453.264-.0371.3896.0247.4504.2224.783.3891.9983.5003.1256.0659.2091.1668.2495.3026.0405.1359.0266.2656-.0426.3892-.0648.1235-.1643.2059-.2982.247-.134.0371-.2639.0226-.3896-.0432-.3287-.173-.6574-.3397-.9861-.5003zm4.0478-.4015c.1339.0288.2374.1009.3105.2162.073.1112.0934.2326.0608.3644-.2517 1.0171-.7143 1.8138-1.3878 2.3903-.6696.5765-1.5743.9471-2.7148 1.1118-.1339.0164-.2556-.0165-.3652-.0989-.1096-.0864-.1743-.1976-.1948-.3335-.0204-.1318.0083-.2512.0852-.3582.0814-.1071.1887-.1709.3227-.1915.9213-.1441 1.6434-.4344 2.1669-.8709.5274-.4406.907-1.0644 1.1383-1.8714.0365-.1277.1095-.2265.2191-.2965.1135-.07.2335-.0906.3591-.0618zm3.0435 4.1815c-.1013.1029-.223.1544-.3652.1544s-.2639-.0515-.3652-.1544-.1522-.2265-.1522-.3706v-4.1012c0-.1441.0509-.2676.1522-.3706.1013-.1029.223-.1544.3652-.1544s.2639.0515.3652.1544c.1013.103.1522.2265.1522.3706v1.1056c0 .0412.0222.07.0669.0865.8887.2223 1.8018.4982 2.7392.8276.13.0453.223.1297.28.2533.0608.1235.0708.2511.0304.3829-.0404.1276-.1217.2224-.2435.2841-.1178.0618-.2413.07-.3713.0247-.8682-.3047-1.6778-.5538-2.4287-.7473-.0487-.0083-.073.0103-.073.0556v1.8282c0 .1441-.0509.2677-.1522.3706zm8.467-4.9103c.1421 0 .2639.0515.3652.1544s.1522.2265.1522.3706v1.2106c0 1.0006-.2335 1.7706-.7 2.31-.4626.5353-1.177.875-2.1426 1.0191-.1257.0165-.2414-.0144-.347-.0926-.1057-.0742-.1726-.1771-.2009-.3089-.0243-.1194-.0021-.2306.067-.3335.073-.1029.1704-.1647.2922-.1853.7426-.1276 1.256-.3665 1.54-.7165.2882-.3541.4321-.91.4321-1.6676v-1.2353c0-.1441.0509-.2677.1522-.3706s.223-.1544.3652-.1544zm-2.6661 2.6559c-.1013.1029-.2231.1544-.3652.1544-.1422 0-.2639-.0515-.3653-.1544-.1013-.103-.1521-.2265-.1521-.3706v-1.7603c0-.1441.0508-.2677.1521-.3706.1014-.1029.2231-.1544.3653-.1544.1421 0 .2639.0515.3652.1544s.1522.2265.1522.3706v1.7603c0 .1441-.0509.2676-.1522.3706zm5.1922.3335c-.1379 0-.2557-.0473-.3531-.1421-.0935-.0988-.14-.2182-.14-.3582s.0465-.2573.14-.352c.0974-.0989.2152-.1483.3531-.1483h4.0904c.1378 0 .2535.0494.3469.1483.0974.0947.1461.212.1461.352s-.0487.2594-.1461.3582c-.0934.0948-.2091.1421-.3469.1421z" fill="#fff"/><path d="m97.5725.494629h-94.34781c-1.20061 0-2.17391.987611-2.17391 2.205881v12.79409c0 1.2183.9733 2.2059 2.17391 2.2059h94.34781c1.2006 0 2.1739-.9876 2.1739-2.2059v-12.79409c0-1.21827-.9733-2.205881-2.1739-2.205881z" fill="#1da1f2" stroke="#000" stroke-width="2"/><path d="m27.2228 7.90687c-.3652-.37059-.8055-.55589-1.3209-.55589-.5153 0-.9556.1853-1.3208.55589-.3653.37058-.5479.81736-.5479 1.34029s.1826.96974.5479 1.34034c.3652.3705.8055.5558 1.3208.5558.5154 0 .9557-.1853 1.3209-.5558.3652-.3706.5478-.81741.5478-1.34034s-.1826-.96971-.5478-1.34029zm-.2496 3.91583c-.3408.1483-.6979.2224-1.0713.2224-.3733 0-.7304-.0741-1.0713-.2224-.3409-.1482-.6351-.3458-.8826-.5929-.2435-.2512-.4383-.5497-.5843-.8956-.1461-.34586-.2192-.7082-.2192-1.08704s.0731-.74118.2192-1.08706c.146-.34588.3408-.64235.5843-.88941.2475-.25116.5417-.45088.8826-.59912.3409-.14823.698-.22235 1.0713-.22235.3734 0 .7305.07412 1.0713.22235.3409.14824.6331.34796.8765.59912.2476.24706.4444.54353.5905.88941s.2191.70822.2191 1.08706-.073.74118-.2191 1.08704c-.1461.3459-.3429.6444-.5905.8956-.2434.2471-.5356.4447-.8765.5929zm6.3365-3.91583c-.3652-.37059-.8055-.55589-1.3208-.55589-.5154 0-.9557.1853-1.3209.55589-.3652.37058-.5478.81736-.5478 1.34029s.1826.96974.5478 1.34034c.3652.3705.8055.5558 1.3209.5558.5153 0 .9556-.1853 1.3208-.5558.3653-.3706.5479-.81741.5479-1.34034s-.1826-.96971-.5479-1.34029zm-.2495 3.91583c-.3409.1483-.698.2224-1.0713.2224-.3734 0-.7305-.0741-1.0713-.2224-.3409-.1482-.6351-.3458-.8826-.5929-.2435-.2512-.4383-.5497-.5844-.8956-.1461-.34586-.2191-.7082-.2191-1.08704s.073-.74118.2191-1.08706.3409-.64235.5844-.88941c.2475-.25116.5417-.45088.8826-.59912.3408-.14823.6979-.22235 1.0713-.22235.3733 0 .7304.07412 1.0713.22235.3409.14824.633.34796.8765.59912.2475.24706.4444.54353.5904.88941.1461.34588.2192.70822.2192 1.08706s-.0731.74118-.2192 1.08704c-.146.3459-.3429.6444-.5904.8956-.2435.2471-.5356.4447-.8765.5929zm6.3365-3.91583c-.3652-.37059-.8055-.55589-1.3209-.55589-.5153 0-.9556.1853-1.3208.55589-.3653.37058-.5479.81736-.5479 1.34029s.1826.96974.5479 1.34034c.3652.3705.8055.5558 1.3208.5558.5154 0 .9557-.1853 1.3209-.5558.3652-.3706.5478-.81741.5478-1.34034s-.1826-.96971-.5478-1.34029zm-.2496 3.91583c-.3408.1483-.6979.2224-1.0713.2224-.3733 0-.7304-.0741-1.0713-.2224-.3408-.1482-.6351-.3458-.8826-.5929-.2435-.2512-.4382-.5497-.5843-.8956-.1461-.34586-.2192-.7082-.2192-1.08704s.0731-.74118.2192-1.08706.3408-.64235.5843-.88941c.2475-.25116.5418-.45088.8826-.59912.3409-.14823.698-.22235 1.0713-.22235.3734 0 .7305.07412 1.0713.22235.3409.14824.6331.34796.8766.59912.2475.24706.4443.54353.5904.88941s.2191.70822.2191 1.08706-.073.74118-.2191 1.08704c-.1461.3459-.3429.6444-.5904.8956-.2435.2471-.5357.4447-.8766.5929zm6.1844-3.18701c.0891-.04531.1804-.05352.2739-.02471s.1622.08855.207.17912c.0204.04116.0508.10293.0913.1853.0447.07822.0769.13795.0974.17911.0447.08647.0508.17705.0182.27177-.0282.09472-.0874.16266-.1765.20382s-.1787.04734-.2678.01853c-.0892-.03296-.1561-.09265-.2009-.17912-.1057-.20175-.1683-.32117-.1887-.35823-.0448-.08647-.0526-.17502-.0243-.26559.0282-.09472.0852-.16469.1704-.21zm.9617-.21618c.0892-.04531.1805-.05148.2739-.01853.0974.02881.1705.08855.2192.17912.0891.16469.1561.2903.2008.37677.0448.08647.0509.17704.0183.27176-.0283.09057-.0874.15851-.1765.20382-.0892.04531-.1826.05352-.28.02471-.0935-.03296-.1622-.09472-.207-.18529-.0404-.08237-.1056-.2059-.1948-.37059-.0447-.08647-.0547-.17705-.0304-.27177.0283-.09882.0874-.16884.1765-.21zm-4.3339-.48794c-.1217 0-.2252-.04323-.3104-.1297s-.1278-.19148-.1278-.315c0-.12353.0426-.22853.1278-.315.0852-.09058.1887-.13589.3104-.13589 1.4487-.00825 2.8365-.04116 4.1635-.09882.1217-.00825.2274.03088.3165.11735.0891.08237.1361.1853.14.30883s-.0343.23263-.1156.32735-.1826.15031-.3044.16676c-.7913.10293-1.3856.31293-1.7835.63-.3978.31708-.5965.7062-.5965 1.16736 0 .40359.1257.72269.3774.95739.2557.2306.5926.3458 1.0104.3458.0853 0 .1805-.0061.2861-.0185.1218-.0123.2313.0206.3287.0988.1013.0742.1605.173.1765.2965.0161.1276-.0143.243-.0913.3459-.0769.1029-.1765.1606-.2982.1729-.1948.0165-.3448.0247-.4505.0247-.7304 0-1.3126-.1914-1.7469-.5744-.4342-.3829-.6513-.8997-.6513-1.55027 0-.35823.0974-.69794.2922-1.01912.1947-.32528.4687-.60119.8217-.82764.0039 0 .0061-.00411.0061-.01236 0-.0041-.0022-.00617-.0061-.00617-.5681.0206-1.193.03498-1.8748.04323zm6.3183 3.55143c-.1218 0-.2274-.0432-.3165-.1297-.0853-.0905-.1279-.1976-.1279-.3211 0-.1236.0426-.2286.1279-.315.0891-.0865.1947-.1297.3165-.1297h1.3878c.0448 0 .067-.0248.067-.0742v-2.53232c0-.04941-.0222-.07411-.067-.07411h-1.2052c-.1218 0-.2274-.04324-.3165-.12971-.0853-.08647-.1279-.19147-.1279-.315s.0426-.22853.1279-.315c.0891-.09057.1947-.13588.3165-.13588h3.5791c.1218 0 .2252.04531.3104.13588.0892.08647.134.19147.134.315s-.0448.22853-.134.315c-.0852.08647-.1886.12971-.3104.12971h-1.2052c-.0448 0-.067.0247-.067.07411v2.53232c0 .0494.0222.0742.067.0742h1.3878c.1218 0 .2252.0432.3105.1297.0891.0864.1339.1914.1339.315 0 .1235-.0448.2306-.1339.3211-.0853.0865-.1887.1297-.3105.1297zm6.1904-3.59466c-.1217-.05767-.2048-.15234-.2496-.28412-.0447-.13588-.0343-.26352.0305-.38294.0648-.12763.1643-.21208.2982-.25324.134-.04531.264-.03706.3896.02471.4504.22235.783.38912.9983.50029.1256.06587.2091.16677.2495.30265.0405.13588.0266.26559-.0426.38912-.0648.12353-.1643.20589-.2982.24706-.134.03705-.2639.02263-.3896-.04324-.3287-.17294-.6574-.33971-.9861-.50029zm4.0478-.40147c.1339.0288.2374.10089.3105.21617.073.11118.0934.23263.0608.36441-.2517 1.01705-.7143 1.81381-1.3878 2.39025-.6696.5765-1.5743.9471-2.7148 1.1118-.1339.0165-.2556-.0164-.3652-.0988-.1096-.0865-.1743-.1977-.1948-.3335-.0204-.1318.0083-.2512.0852-.3583.0814-.107.1887-.1708.3227-.1914.9213-.1442 1.6434-.4345 2.1669-.87093.5274-.4406.907-1.06442 1.1383-1.87147.0365-.12763.1095-.22645.2191-.29647.1135-.07001.2335-.09057.3591-.06176zm3.0435 4.18143c-.1013.103-.223.1544-.3652.1544s-.2639-.0514-.3652-.1544c-.1013-.1029-.1522-.2264-.1522-.3706v-4.10113c0-.14413.0509-.26766.1522-.37059.1013-.10292.223-.15441.3652-.15441s.2639.05149.3652.15441c.1013.10293.1522.22646.1522.37059v1.10559c0 .04116.0222.07001.0669.08647.8887.22235 1.8018.49822 2.7392.82765.13.04531.223.1297.28.25323.0608.12353.0708.25116.0304.38294-.0404.12764-.1217.22235-.2435.28415-.1178.0617-.2413.07-.3713.0247-.8682-.30474-1.6778-.55383-2.4287-.74738-.0487-.00825-.073.01028-.073.05559v1.82819c0 .1442-.0509.2677-.1522.3706zm8.467-4.91026c.1421 0 .2639.05149.3652.15441.1013.10293.1522.22646.1522.37059v1.21059c0 1.00059-.2335 1.77057-.7 2.30997-.4626.5353-1.177.875-2.1426 1.0191-.1257.0165-.2414-.0144-.347-.0926-.1057-.0741-.1726-.177-.2009-.3088-.0243-.1194-.0021-.2306.067-.3336.073-.1029.1704-.1646.2922-.1852.7426-.1277 1.256-.3665 1.54-.7165.2882-.35415.4321-.91003.4321-1.66766v-1.2353c0-.14413.0509-.26766.1522-.37059.1013-.10292.223-.15441.3652-.15441zm-2.6661 2.65588c-.1013.10293-.2231.15442-.3652.15442-.1422 0-.2639-.05149-.3653-.15442-.1013-.10292-.1521-.22645-.1521-.37058v-1.7603c0-.14413.0508-.26766.1521-.37059.1014-.10292.2231-.15441.3653-.15441.1421 0 .2639.05149.3652.15441.1013.10293.1522.22646.1522.37059v1.7603c0 .14413-.0509.26766-.1522.37058zm5.1922.33353c-.1379 0-.2557-.04733-.3531-.14206-.0935-.09882-.14-.21825-.14-.35823 0-.13999.0465-.25734.14-.35206.0974-.09882.2152-.14823.3531-.14823h4.0904c.1378 0 .2535.04941.3469.14823.0974.09472.1461.21207.1461.35206 0 .13998-.0487.25941-.1461.35823-.0934.09473-.2091.14206-.3469.14206z" fill="#fff"/></g></svg>