<svg fill="none" height="60" viewBox="0 0 121 60" width="121" xmlns="http://www.w3.org/2000/svg" xmlns:xlink="http://www.w3.org/1999/xlink"><clipPath id="a"><path d="m.75 19h120v22h-120z"/></clipPath><g clip-path="url(#a)"><path d="m117.605 19.5366h-113.71148c-1.44703 0-2.62008 1.2012-2.62008 2.6829v15.561c0 1.4818 1.17305 2.683 2.62008 2.683h113.71148c1.447 0 2.62-1.2012 2.62-2.683v-15.561c0-1.4817-1.173-2.6829-2.62-2.6829z" fill="#1da1f2" stroke="#000" stroke-width="2"/><path d="m26.4465 28.6166c-.4401-.4507-.9708-.6761-1.5919-.6761s-1.1518.2254-1.592.6761c-.4402.4508-.6603.9942-.6603 1.6302s.2201 1.1794.6603 1.6301c.4402.4508.9709.6761 1.592.6761s1.1518-.2253 1.5919-.6761c.4402-.4507.6603-.9941.6603-1.6301s-.2201-1.1794-.6603-1.6302zm-.3008 4.7628c-.4108.1803-.8412.2704-1.2911.2704-.45 0-.8804-.0901-1.2912-.2704s-.7654-.4207-1.0638-.7212c-.2934-.3055-.5282-.6686-.7042-1.0893-.1761-.4207-.2642-.8614-.2642-1.3221 0-.4608.0881-.9015.2642-1.3222.176-.4207.4108-.7812.7042-1.0817.2984-.3055.653-.5484 1.0638-.7287s.8412-.2704 1.2912-.2704c.4499 0 .8803.0901 1.2911.2704.4109.1803.763.4232 1.0565.7287.2983.3005.5355.661.7116 1.0817s.2641.8614.2641 1.3222c0 .4607-.088.9014-.2641 1.3221s-.4133.7838-.7116 1.0893c-.2935.3005-.6456.5409-1.0565.7212zm7.6371-4.7628c-.4402-.4507-.9709-.6761-1.592-.6761s-1.1518.2254-1.592.6761c-.4401.4508-.6602.9942-.6602 1.6302s.2201 1.1794.6602 1.6301c.4402.4508.9709.6761 1.592.6761s1.1518-.2253 1.592-.6761c.4402-.4507.6602-.9941.6602-1.6301s-.22-1.1794-.6602-1.6302zm-.3008 4.7628c-.4108.1803-.8412.2704-1.2912.2704s-.8803-.0901-1.2912-.2704c-.4108-.1803-.7654-.4207-1.0637-.7212-.2935-.3055-.5282-.6686-.7043-1.0893s-.2641-.8614-.2641-1.3221c0-.4608.088-.9015.2641-1.3222s.4108-.7812.7043-1.0817c.2983-.3055.6529-.5484 1.0637-.7287.4109-.1803.8412-.2704 1.2912-.2704s.8804.0901 1.2912.2704.763.4232 1.0564.7287c.2983.3005.5356.661.7116 1.0817.1761.4207.2641.8614.2641 1.3222 0 .4607-.088.9014-.2641 1.3221-.176.4207-.4133.7838-.7116 1.0893-.2934.3005-.6456.5409-1.0564.7212zm4.4751-2.5392c-.3277.2404-.4915.4633-.4915.6686 0 .3656.2567.5484.7703.5484.2788 0 .5502-.0626.8143-.1878.044-.02.0465-.0501.0073-.0901l-.9683-.9316c-.0489-.04-.093-.0425-.1321-.0075zm.807-2.4264c-.1027-.0901-.2494-.1352-.4402-.1352-.1907 0-.3423.0451-.4548.1352-.1076.0852-.1614.1953-.1614.3305 0 .1152.0244.2204.0733.3155.0538.0952.1761.243.3668.4433.0392.04.0832.045.1321.015.2641-.1703.4353-.303.5135-.3982.0832-.1001.1247-.2078.1247-.323 0-.1652-.0513-.293-.154-.3831zm-.5869 4.6125c-1.3205 0-1.9808-.4683-1.9808-1.4048 0-.2454.0807-.4833.2421-.7137.1614-.2303.4328-.4782.8143-.7437.044-.03.0465-.065.0074-.1051-.2837-.2755-.4794-.5134-.5869-.7137-.1076-.2003-.1614-.4181-.1614-.6535 0-.3806.1589-.6912.4768-.9316.3228-.2453.7605-.3681 1.3132-.3681.5918 0 1.0393.1152 1.3425.3456.3033.2304.4549.5534.4549.9691 0 .2654-.0856.5158-.2568.7512s-.4597.4858-.8657.7512c-.0489.0301-.0538.0651-.0146.1052l.6382.631c.0098.01.022.0125.0367.0075.0147-.01.022-.0225.022-.0375v-.3231c0-.1602.0538-.2955.1614-.4056.1125-.1152.247-.1728.4035-.1728s.2886.0576.3962.1728c.1125.1101.1687.2454.1687.4056v1.4424c0 .0601.0195.1101.0587.1502l.3301.323c.0832.0802.1027.1753.0587.2855-.044.1052-.1222.1578-.2348.1578h-.3007c-.2788 0-.5209-.0977-.7263-.293-.0294-.0301-.0587-.0376-.0881-.0225-.6162.2604-1.186.3906-1.7093.3906zm8.3079-4.4097c-.4402-.4507-.9708-.6761-1.592-.6761-.6211 0-1.1518.2254-1.592.6761-.4401.4508-.6602.9942-.6602 1.6302s.2201 1.1794.6602 1.6301c.4402.4508.9709.6761 1.592.6761.6212 0 1.1518-.2253 1.592-.6761.4401-.4507.6602-.9941.6602-1.6301s-.2201-1.1794-.6602-1.6302zm-.3008 4.7628c-.4108.1803-.8412.2704-1.2912.2704-.4499 0-.8803-.0901-1.2912-.2704-.4108-.1803-.7654-.4207-1.0637-.7212-.2935-.3055-.5282-.6686-.7043-1.0893s-.2641-.8614-.2641-1.3221c0-.4608.088-.9015.2641-1.3222s.4108-.7812.7043-1.0817c.2983-.3055.6529-.5484 1.0637-.7287.4109-.1803.8413-.2704 1.2912-.2704.45 0 .8804.0901 1.2912.2704s.7629.4232 1.0564.7287c.2984.3005.5355.661.7116 1.0817s.2641.8614.2641 1.3222c0 .4607-.088.9014-.2641 1.3221s-.4132.7838-.7116 1.0893c-.2935.3005-.6456.5409-1.0564.7212zm7.6369-4.7628c-.4402-.4507-.9707-.6761-1.5919-.6761-.6211 0-1.1517.2254-1.5919.6761-.4402.4508-.6603.9942-.6603 1.6302s.2201 1.1794.6603 1.6301c.4402.4508.9708.6761 1.5919.6761.6212 0 1.1517-.2253 1.5919-.6761.4402-.4507.6603-.9941.6603-1.6301s-.2201-1.1794-.6603-1.6302zm-.3008 4.7628c-.4107.1803-.8411.2704-1.2911.2704-.4499 0-.8803-.0901-1.2911-.2704-.4109-.1803-.7654-.4207-1.0638-.7212-.2934-.3055-.5282-.6686-.7043-1.0893-.176-.4207-.2641-.8614-.2641-1.3221 0-.4608.0881-.9015.2641-1.3222.1761-.4207.4109-.7812.7043-1.0817.2984-.3055.6529-.5484 1.0638-.7287.4108-.1803.8412-.2704 1.2911-.2704.45 0 .8804.0901 1.2911.2704.4109.1803.763.4232 1.0564.7287.2987.3005.5356.661.7117 1.0817.176.4207.2641.8614.2641 1.3222 0 .4607-.0881.9014-.2641 1.3221-.1761.4207-.413.7838-.7117 1.0893-.2934.3005-.6455.5409-1.0564.7212zm7.4536-3.8763c.108-.0551.218-.0651.3302-.0301.1126.0351.196.1077.2494.2179.0246.05.0613.1252.1101.2253.0539.0952.0932.1678.1173.2179.054.1052.0613.2153.022.3305-.034.1152-.1048.1979-.2127.2479-.1074.0501-.2149.0576-.3228.0226-.1074-.0401-.1881-.1127-.2421-.2179-.1268-.2454-.2028-.3906-.2274-.4357-.0535-.1052-.0634-.2129-.0294-.323.0346-.1152.1027-.2003.2054-.2554zm1.1592-.263c.1079-.0551.218-.0626.3301-.0225.1174.035.2054.1077.2641.2179.108.2003.1887.353.2421.4582.054.1052.0613.2153.022.3305-.0341.1102-.1048.1928-.2127.2479-.1075.0551-.2201.0651-.3375.0301-.1122-.0401-.1955-.1152-.2494-.2254-.0488-.1002-.1269-.2504-.2348-.4507-.0535-.1052-.066-.2153-.0367-.3305.0346-.1202.1053-.2054.2128-.2555zm-5.2234-.5934c-.1468 0-.2715-.0526-.3742-.1578s-.154-.2329-.154-.3831.0513-.278.154-.3831c.1027-.1102.2274-.1653.3742-.1653 1.746-.01 3.4187-.0501 5.018-.1202.1467-.01.274.0376.3814.1427.108.1002.1641.2254.1688.3757.0052.1502-.0414.2829-.1394.3981-.0975.1152-.2201.1828-.3668.2028-.9537.1252-1.6701.3806-2.1495.7663-.479.3856-.719.8589-.719 1.4198 0 .4908.152.8789.4548 1.1644.3082.2804.7143.4207 1.2179.4207.1027 0 .218-.0076.3448-.0226.1467-.015.2787.0251.3961.1202.1226.0902.1934.2104.2128.3606.0199.1552-.0168.2955-.1101.4207-.0927.1252-.2127.1953-.3594.2103-.2348.02-.4156.0301-.5429.0301-.8804 0-1.582-.2329-2.1055-.6987-.523-.4657-.785-1.0942-.785-1.8855 0-.4357.1174-.8489.3521-1.2395.2348-.3957.5649-.7312.9904-1.0067.0053 0 .0074-.005.0074-.015 0-.005-.0021-.0075-.0074-.0075-.6843.025-1.4379.0425-2.2595.0526zm7.615 4.3195c-.1467 0-.2736-.0526-.3815-.1578-.1027-.1101-.1541-.2404-.1541-.3906s.0514-.278.1541-.3831c.1079-.1052.2348-.1578.3815-.1578h1.6727c.0539 0 .0806-.03.0806-.0901v-3.08c0-.0601-.0267-.0902-.0806-.0902h-1.4526c-.1468 0-.2736-.0526-.3815-.1577-.1027-.1052-.1541-.2329-.1541-.3832 0-.1502.0514-.2779.1541-.3831.1079-.1101.2347-.1652.3815-.1652h4.3137c.1467 0 .2714.0551.3741.1652.108.1052.1614.2329.1614.3831 0 .1503-.0534.278-.1614.3832-.1027.1051-.2274.1577-.3741.1577h-1.4526c-.0534 0-.0807.0301-.0807.0902v3.08c0 .0601.0273.0901.0807.0901h1.6727c.1467 0 .2714.0526.3741.1578.108.1051.1614.2329.1614.3831s-.0534.2805-.1614.3906c-.1027.1052-.2274.1578-.3741.1578zm7.4609-4.3721c-.1467-.0701-.2468-.1853-.3007-.3456-.0535-.1652-.0414-.3205.0366-.4657.0786-.1553.1981-.258.3595-.308.1614-.0551.3181-.0451.4695.03.5429.2705.9443.4733 1.2032.6085.1519.0801.252.2028.3008.3681.0492.1653.0319.323-.0514.4733-.0781.1502-.1981.2504-.3595.3005-.1614.045-.3175.0275-.4695-.0526-.3961-.2104-.7923-.4132-1.1885-.6085zm4.8786-.4883c.1614.035.2862.1227.3742.2629.088.1352.1127.283.0734.4432-.3029 1.237-.8605 2.2061-1.6727 2.9073-.807.7011-1.8975 1.1519-3.272 1.3522-.1614.02-.3081-.0201-.4401-.1202-.1321-.1052-.2102-.2404-.2348-.4057-.0241-.1603.01-.3055.1027-.4357.098-.1302.2274-.2078.3888-.2329 1.1104-.1753 1.9808-.5284 2.6117-1.0592.6362-.5359 1.0931-1.2946 1.3719-2.2762.044-.1552.1321-.2754.2641-.3606.1373-.0851.2814-.1101.4328-.0751zm3.6682 5.0858c-.1221.1251-.2689.1878-.4402.1878-.1708 0-.3176-.0627-.4402-.1878-.1221-.1252-.1834-.2755-.1834-.4508v-4.9881c0-.1753.0613-.3255.1834-.4507.1226-.1252.2694-.1878.4402-.1878.1713 0 .3181.0626.4402.1878.1226.1252.1834.2754.1834.4507v1.3447c0 .0501.0272.0852.0807.1052 1.0711.2704 2.1715.6059 3.3013 1.0066.1567.0551.2693.1578.3374.308.0734.1503.086.3055.0367.4658-.0487.1552-.1467.2704-.2934.3455-.1415.0752-.2908.0852-.4475.0301-1.0465-.3706-2.0222-.6736-2.9272-.909-.0587-.01-.088.0125-.088.0676v2.2236c0 .1753-.0608.3256-.1834.4508zm10.2047-5.9722c.1713 0 .3181.0626.4402.1878.1226.1252.1834.2754.1834.4507v1.4724c0 1.217-.2809 2.1535-.8437 2.8095-.5576.6511-1.418 1.0643-2.5824 1.2396-.1514.02-.2908-.0176-.4181-.1127-.1268-.0902-.2075-.2154-.2421-.3756-.0294-.1453-.0021-.2805.0807-.4057.088-.1252.2054-.2003.3521-.2254.895-.1552 1.5139-.4457 1.8561-.8714.3474-.4307.5209-1.1068.5209-2.0283v-1.5024c0-.1753.0613-.3255.1834-.4507.1226-.1252.2693-.1878.4401-.1878zm-3.2133 3.2302c-.1221.1252-.2688.1878-.4402.1878-.1708 0-.3175-.0626-.4401-.1878-.1221-.1252-.1834-.2754-.1834-.4507v-2.141c0-.1753.0613-.3255.1834-.4507.1226-.1252.2693-.1878.4401-.1878.1714 0 .3181.0626.4402.1878.1226.1252.1834.2754.1834.4507v2.141c0 .1753-.0608.3255-.1834.4507zm6.2578.4057c-.1661 0-.3081-.0576-.4255-.1728-.1121-.1202-.1687-.2655-.1687-.4357 0-.1703.0566-.313.1687-.4282.1174-.1202.2594-.1803.4255-.1803h4.93c.1666 0 .306.0601.4182.1803.1173.1152.176.2579.176.4282 0 .1702-.0587.3155-.176.4357-.1122.1152-.2516.1728-.4182.1728z" fill="#fff"/></g></svg>